<?xml version="1.0" encoding="UTF-8"?><svg id="Calque_2" xmlns="http://www.w3.org/2000/svg" viewBox="0 0 93.58 97.65"><defs><style>.cls-1{fill:#fff;}</style></defs><path class="cls-1" d="m77.91,47.36v33.34c-.06.13-.15.26-.17.39-.88,4.71-4.57,7.81-9.41,7.82-14.39.02-28.79.02-43.18,0-5.37,0-9.49-4.01-9.53-9.36-.07-10.37-.07-20.73,0-31.1.04-5.26,4.12-9.31,9.28-9.32,14.57-.03,29.14-.02,43.72,0,4.3,0,7.86,2.86,8.95,7.04.1.4.22.79.34,1.18Zm-34.3,22.73s.02,0,.03,0c0,1.19-.07,2.39.02,3.58.12,1.66,1.48,2.83,3.14,2.81,1.8-.02,3.09-1.36,3.12-3.34.04-2,.03-4,0-6,0-.59.15-.96.65-1.33,2.79-2.11,3.26-6.07,1.09-8.76-2.25-2.8-6.2-3.2-8.92-.91-2.69,2.27-3.14,6.41-.59,8.82,1.35,1.28,1.58,2.55,1.47,4.14-.02.33,0,.66,0,.99Z"/><path class="cls-1" d="m48.17,7.92c1.61.28,3.25.46,4.83.87,5.97,1.57,10.19,5.29,12.85,10.81,2.1,4.34,2.7,9,2.71,13.76,0,.75,0,1.49-.01,2.24,0,.06-.03.11-.07.24h-9.19c0-.79.07-1.59-.01-2.38-.24-2.4-.27-4.86-.85-7.17-1.69-6.64-6.38-9.58-13.11-8.95-5.92.56-9.57,4.24-10.56,10.51-.33,2.08-.34,4.22-.48,6.33-.04.53,0,1.06,0,1.67h-9.16c0-2.01-.11-4.01.02-5.99.29-4.24,1.32-8.31,3.53-12,3.24-5.41,7.99-8.57,14.2-9.56.82-.13,1.64-.25,2.47-.37.96,0,1.91,0,2.87,0Z"/></svg>